<?xml version="1.0" encoding="utf-8"?>
<!-- Generator: Adobe Illustrator 23.0.0, SVG Export Plug-In . SVG Version: 6.00 Build 0)  -->
<svg version="1.1" id="圖層_1" xmlns="http://www.w3.org/2000/svg" xmlns:xlink="http://www.w3.org/1999/xlink" x="0px" y="0px"
	 viewBox="0 0 1000 500" style="enable-background:new 0 0 1000 500;" xml:space="preserve">
<style type="text/css">
	.st0{fill:#FCFCFC;}
	.st1{fill:none;stroke:#404040;stroke-width:5;stroke-miterlimit:10;}
	.st2{fill:none;stroke:#404040;stroke-width:5;stroke-miterlimit:10;stroke-dasharray:23.6895,23.6895;}
	.st3{fill:#404040;stroke:#404040;stroke-width:5;stroke-miterlimit:10;}
	.st4{fill:#404040;}
</style>
<g>
	<g>
		<rect x="24.9" y="12.5" class="st0" width="475.1" height="475.1"/>
		<g>
			<polyline class="st1" points="24.9,25 24.9,12.5 37.4,12.5 			"/>
			<line class="st2" x1="61.1" y1="12.5" x2="475.7" y2="12.5"/>
			<polyline class="st1" points="487.5,12.5 500,12.5 500,25 			"/>
			<line class="st2" x1="500" y1="48.7" x2="500" y2="463.3"/>
			<polyline class="st1" points="500,475.1 500,487.6 487.5,487.6 			"/>
			<line class="st2" x1="463.8" y1="487.6" x2="49.2" y2="487.6"/>
			<polyline class="st1" points="37.4,487.6 24.9,487.6 24.9,475.1 			"/>
			<line class="st2" x1="24.9" y1="451.4" x2="24.9" y2="36.8"/>
		</g>
	</g>
</g>
<g>
	<rect x="500" y="12.5" class="st3" width="475.1" height="475.1"/>
</g>
<g>
	<path class="st4" d="M145.9,292.9h-10.7v-43.3H91.3v43.3H80.5v-91.4h10.9v37.6h43.8v-37.6h10.7V292.9z"/>
	<path class="st4" d="M246.5,292.9h-11.4L221,262.3h-37.7l-14,30.6h-11.9l43.2-95h3.3L246.5,292.9z M216.1,251.5l-13.9-30.8
		l-14,30.8H216.1z"/>
	<path class="st4" d="M258.2,201.5h18.7c10.7,0,17.6,0.4,21,1.3c3.3,0.8,6.4,2.3,9.2,4.5c2.8,2.2,5,4.9,6.5,8.1
		c1.6,3.3,2.4,6.9,2.4,11s-0.8,7.7-2.3,11s-3.8,5.9-6.6,8s-6.4,3.6-10.5,4.5c-4.2,0.9-11.5,1.3-22.1,1.3H269v41.7h-10.7L258.2,201.5
		L258.2,201.5z M268.9,240.8h14.2c8.4,0.2,14.1-1.2,17.2-4c3-2.8,4.6-6.4,4.6-10.6c0-9.5-7-14.2-21-14.2h-15L268.9,240.8
		L268.9,240.8z"/>
	<path class="st4" d="M332.1,201.5h18.7c10.7,0,17.6,0.4,21,1.3c3.3,0.8,6.4,2.3,9.2,4.5c2.8,2.2,5,4.9,6.5,8.1
		c1.6,3.3,2.4,6.9,2.4,11s-0.8,7.7-2.3,11s-3.8,5.9-6.6,8s-6.4,3.6-10.5,4.5c-4.2,0.9-11.5,1.3-22.1,1.3h-5.5v41.7h-10.7
		L332.1,201.5L332.1,201.5z M342.8,240.8H357c8.4,0.2,14.1-1.2,17.2-4c3-2.8,4.6-6.4,4.6-10.6c0-9.5-7-14.2-21-14.2h-15L342.8,240.8
		L342.8,240.8z"/>
	<path class="st4" d="M467.6,201.5l-29.2,47.9v43.4h-10.5v-43.4l-29.7-47.9h12.5l22.3,36.1l22.1-36.1H467.6z"/>
</g>
<g>
	<path class="st0" d="M605.9,218l-25.1,60.6h-2.3l-17.2-41.7L544,278.6h-2.3L517.2,218h9.1l16.6,42.2l17.4-42.2h2.2l17.3,42.3
		l16.9-42.3H605.9z"/>
	<path class="st0" d="M671.4,248.9H620c0.4,6.5,2.5,11.6,6.5,15.5s8.7,5.9,14.3,5.9c9.4,0,16.6-4.6,21.5-13.9l7.5,3.9
		c-3.4,6.2-7.3,10.8-11.9,13.8c-4.6,3-10.1,4.5-16.5,4.5c-8.8,0-16.1-3-21.8-9.1s-8.6-13.4-8.6-21.9s2.9-15.8,8.7-21.9
		s12.9-9.1,21.5-9.1c8.5,0,15.7,2.9,21.4,8.7C668.2,231,671.2,238.9,671.4,248.9z M661.5,241c-1.1-5-3.5-8.9-7.3-11.7
		s-8.2-4.2-13.1-4.2c-10,0-16.7,5.3-20,15.9L661.5,241L661.5,241z"/>
	<path class="st0" d="M742,276.6h-8.7V268c-6.4,7-13.7,10.5-22.1,10.5c-8.3,0-15.4-3.1-21.3-9.2s-8.9-13.4-8.9-21.9s3-15.8,8.9-21.8
		c6-6.1,13.2-9.1,21.8-9.1s15.8,3.5,21.6,10.4V218h8.7V276.6L742,276.6z M711.9,270.3c6,0,11.1-2.2,15.4-6.5
		c4.3-4.3,6.5-9.7,6.5-16.1s-2.1-11.8-6.3-16.1c-4.2-4.3-9.4-6.5-15.5-6.5s-11.3,2.2-15.5,6.7s-6.3,9.8-6.3,15.9s2.2,11.4,6.5,15.9
		C700.7,268.1,705.8,270.3,711.9,270.3z"/>
	<path class="st0" d="M784,225.8h-11.6v41.1c0,1.5,0.2,2.4,0.6,2.7c0.4,0.3,1.5,0.5,3.2,0.5h5.2v7.6c-3.4,0.6-6.1,0.9-7.8,0.9
		c-3.4,0-6-0.8-7.6-2.5c-1.7-1.7-2.5-4.4-2.5-8v-42.3h-10.1V218h10.1v-22h8.9v22H784V225.8L784,225.8z"/>
	<path class="st0" d="M844.9,276.6H836v-28c0-5.5-0.2-9.3-0.5-11.5s-1.1-4.3-2.2-6.3c-1.1-2-2.7-3.5-4.7-4.5s-4.3-1.6-7.1-1.6
		s-5.4,0.6-7.9,1.9s-4.7,3.1-6.5,5.4s-3,4.7-3.7,7.3c-0.7,2.6-1,7.7-1,15.5v21.7h-8.9V196h8.9v30.9c5.8-6.9,12.7-10.3,20.7-10.3
		c4.2,0,8.1,1.1,11.5,3.3c3.4,2.2,6,5.2,7.7,9s2.6,9.7,2.6,17.7L844.9,276.6L844.9,276.6z"/>
	<path class="st0" d="M916.9,248.9h-51.4c0.4,6.5,2.5,11.6,6.5,15.5s8.7,5.9,14.3,5.9c9.4,0,16.6-4.6,21.5-13.9l7.5,3.9
		c-3.4,6.2-7.3,10.8-11.9,13.8c-4.6,3-10.1,4.5-16.5,4.5c-8.8,0-16.1-3-21.8-9.1s-8.6-13.4-8.6-21.9s2.9-15.8,8.7-21.9
		s12.9-9.1,21.5-9.1s15.7,2.9,21.4,8.7C913.7,231,916.7,238.9,916.9,248.9z M907,241c-1.1-5-3.5-8.9-7.3-11.7
		c-3.8-2.8-8.2-4.2-13.1-4.2c-10,0-16.7,5.3-20,15.9L907,241L907,241z"/>
	<path class="st0" d="M953.8,218.9l-4.6,7.5c-1.2-0.6-2.4-1-3.5-1c-2.2,0-4.2,1.1-6,3.3c-1.8,2.2-3.1,5.1-4,8.6s-1.3,10-1.3,19.2
		v20.1h-9V218h9v6.3c1.8-2.7,3.6-4.6,5.4-5.9c1.8-1.3,3.9-1.9,6.2-1.9C948.2,216.5,950.8,217.3,953.8,218.9z"/>
</g>
</svg>
